/* XPM */
static const char * aris_icon_xpm[] = {
"16 16 2 1",
" 	c None",
".	c #AB0000",
"                ",
"                ",
"       ..       ",
"      ...       ",
"      ....      ",
"     . ...      ",
"     . ...      ",
"    .   ...     ",
"    .   ...     ",
"    .   ....    ",
"   .........    ",
"   .     ...    ",
"  .       ...   ",
" ..       ....  ",
".....   ....... ",
"                "};
