/* XPM */
static char * and_conn_xpm[] = {
"30 36 2 1",
" 	c None",
".	c #000000",
"                              ",
"                              ",
"                              ",
"                              ",
"                              ",
"                              ",
"                              ",
"                              ",
"                              ",
"             .....            ",
"             .....            ",
"            ......            ",
"            ......            ",
"            .......           ",
"           .... ...           ",
"           .... ...           ",
"           ...  ....          ",
"          ....  ....          ",
"          ....   ...          ",
"          ...    ....         ",
"         ....    ....         ",
"         ....     ...         ",
"         ...      ...         ",
"         ...      ....        ",
"        ....       ...        ",
"        ...        ...        ",
"        ...        ....       ",
"       ....         ...       ",
"       ...          ...       ",
"       ...          ...       ",
"                              ",
"                              ",
"                              ",
"                              ",
"                              ",
"                              "};
