/* XPM */
static char * ctr_conn_xpm[] = {
"36 36 2 1",
" 	c None",
".	c #000000",
"                                    ",
"                                    ",
"                                    ",
"                                    ",
"                                    ",
"                  ..                ",
"                  ..                ",
"                  ..                ",
"                  ..                ",
"                  ..                ",
"                  ..                ",
"                  ..                ",
"                  ..                ",
"                  ..                ",
"                  ..                ",
"                  ..                ",
"                  ..                ",
"                  ..                ",
"                  ..                ",
"                  ..                ",
"                  ..                ",
"                  ..                ",
"                  ..                ",
"                  ..                ",
"                  ..                ",
"                  ..                ",
"                  ..                ",
"                 ...                ",
"      .........................     ",
"      .........................     ",
"                                    ",
"                                    ",
"                                    ",
"                                    ",
"                                    ",
"                                    "};
