/* XPM */
static char * unv_conn_xpm[] = {
"36 34 2 1",
" 	c None",
".	c #000000",
"                                    ",
"                                    ",
"                                    ",
"                                    ",
"                                    ",
"                                    ",
"                                    ",
"       ...                ....      ",
"       ....               ....      ",
"       ....               ...       ",
"        ...              ....       ",
"        ....             ....       ",
"        ....             ...        ",
"         ...................        ",
"         ..................         ",
"          .................         ",
"          ....         ....         ",
"          ....         ...          ",
"           ...        ....          ",
"           ....       ...           ",
"            ...       ...           ",
"            ...      ....           ",
"            ....     ...            ",
"             ...     ...            ",
"             ...    ....            ",
"             ....   ...             ",
"              ...  ....             ",
"              .... ...              ",
"               ... ...              ",
"               .......              ",
"               ......               ",
"                .....               ",
"                .....               ",
"                                    ",
"                                    ",
"                                    "};
